<svg xmlns="http://www.w3.org/2000/svg" viewBox="0 0 380.2 367.4"><style type="text/css">  
	.st0{fill:#FFFFFF;}
</style><rect x="15.7" y="2" width="343.4" height="143.4"/><path d="M159.7 33.4c4.6 0 7.2 2.9 7.2 7 0 3.9-3.2 6.7-7.1 6.7l-4.1 0V33.5L159.7 33.4z"/><path d="M66.9 72.2c1.2 0 1.9 0.5 1.9 1.6 0 1.2-0.9 1.4-1.8 1.4h-7.4l0-3H66.9z"/><polygon points="104.6 86.5 97.9 86.5 101.3 79.2 "/><path d="M69 85.6c0 0.8-0.6 1.4-1.6 1.4h-7.9c0 0 0-3 0-3 0.1 0 7.8 0 7.8 0C68.5 83.9 69.1 84.5 69 85.6z"/><circle cx="93.3" cy="41" r="6.5"/><path d="M263.6 72.4c1.2 0 1.7 0.7 1.7 1.5 0 0.7-0.5 1.5-1.8 1.5l-10.1 0 0-3H263.6z"/><path class="st0" d="M210 46c0 1.1 1.3 1.9 2.6 1.9 1.2 0 2.6-0.7 2.6-1.8l0-14c0-5.1 3.5-7.9 7.5-7.9 0 0 5.3 0 5.3 0l0 24.5c0 4.1-3 7.4-6.6 8.8 -5.7 1.8-12.4 1.3-16.7-3.2 -4.2 4.6-10.3 4.6-15.5 3.8 -4.2-0.7-8.7-4.3-8.7-9.5l0 0V24.1h12.4l0 21.3c0 1.7 1.3 2.3 2.6 2.3 1 0 2.5-0.6 2.5-2V24.1c0.1 0 12.3 0 12.1 0L210 46z"/><path class="st0" d="M272.5 32.5c0.5 4.5-1 7.3-2.6 8.9 -2 2-4.5 3.1-7.9 3.1l-8.2 0c-4.8 0-7.8-3.2-7.8-7.5v-0.9l12.1 0c1 0 1.6-0.8 1.6-1.6 0-0.8-0.5-1.7-1.8-1.7l-7.1 0c-4.3 0-7.1 2.8-7.1 6.9 0.1 3.6 2.5 8.2 9 8.2l22.5 0c0 0 0-23.9 0-23.9l12.6 0 0 23.6h17.2l0-23.6 12.6 0v23.6l17.2 0c0 5.6-3.1 10.6-8.6 10.6 0 0-12.2 0-12.2 0 -5.5 0-9-4.3-9-9.2 0 4.9-3.7 9.2-8.9 9.2 0 0-11.6 0-11.6 0 -4.8 0-9.3-3.9-9.3-9h0c-0.7 4-5.4 9-10.2 9 0.1 0-18.3 0-18.4 0 -6.1 0-11.6-4.6-14.2-10.3 -2.1-4.9-1.8-11.4 1-16 2.5-5 8.4-8.1 13.9-8l16 0C267.6 24 271.9 28.3 272.5 32.5z"/><path class="st0" d="M126.7 47.5l17.2 0 0-23.4 17.6 0c10.1 0 17.2 7 17.2 16.4 0 9.6-6.9 17.8-16.7 17.8H144l0-8.7c-1 4.4-4.4 8.7-9.8 8.7 0.1 0-11.5 0-11.5 0 -5.4 0-9.6-4.4-9.6-8.8l0-25.4h13.7L126.7 47.5zM155.8 33.7v13.7l4.1 0c3.9 0 7.1-2.8 7.1-6.7 0-4-2.6-7-7.2-7L155.8 33.7z"/><path class="st0" d="M176.7 63.4l0 9.6 8.9-9.6h15c0 0-14.5 15.7-14.5 15.7 0 0 4.8 0 4.8 0s9.7 17.4 14.3 26.2h-14.2c0 0-11.1-19.6-11-19.6 0 0-3.3 3.5-3.3 3.5v8.6c0 0-13 0-13 0V63.4H176.7z"/><path class="st0" d="M327.4 63.5c2.9 0.1 3.7 1.3 3.8 3.8l0 27.3c0 2.4-1.6 3.5-3.4 3.5h-31c-1.9 0-3.3-1-3.3-3.2V66.7c0-2.5 1.4-3.2 3.3-3.2H327.4zM300.5 76.5c0 5.4 3.5 8.7 7.6 8.7h6.9v-4.9l-6.9 0v-7.6l6.7 0V68h-6.9C304.3 68 300.5 71.1 300.5 76.5zM309.6 74.2l0 4.7 6.9 0 0 7.7 -7.1 0v5l7.9 0c2.3 0 4.1 0 5.2-1.2 1.7-1.6 1.4-4.7 0.4-6.1 -1.1-1.4-2.4-1.5-2.4-1.5s1-0.1 1.8-0.9c1.3-1.2 1.6-3.7 1-5.1 -1-2-2.5-2.7-6-2.7L309.6 74.2z"/><path class="st0" d="M122 95.9l0-32.5h11.8c4 5.2 8.3 10.5 12.5 15.5l0-15.5 12.9 0v34.4l-6.3 0c-4.3 0-5.8-0.2-7.4-1.6 -3.9-3.6-10.1-11.8-10.1-11.8l0 13.4 -29.2 0c-3.6 0-8.2-2.4-9.9-8l0 0c0 0-3.7 8-3.6 8l-11.8 0 13.3-30.3c1.3-3 3.7-4.2 7-4.2l6 0L122 95.9zM101.3 79.4l-3.4 7.3 6.7 0L101.3 79.4z"/><path class="st0" d="M80.7 71.7c0.4 3.8-1.7 6.5-3.8 7.9 3.6 1.7 5 4.9 4.9 8.4 -0.1 4-2.8 9.8-12.5 9.8l-22.7 0V63.5l21.8 0C75.1 63.5 80 65.5 80.7 71.7zM59.6 72.3l0 3H67c0.9 0 1.8-0.3 1.8-1.5 0-1.1-0.7-1.6-1.9-1.6H59.6zM67.4 84.1c0 0-7.8 0-7.8 0 0 0 0 3 0 3h7.9c1 0 1.5-0.5 1.6-1.4C69.1 84.7 68.5 84.1 67.4 84.1z"/><path class="st0" d="M108.7 32c3.2 5.1 3.3 12.5 0.2 18 -4 6.8-11.1 10.1-19 8.7 -4.9-0.9-9.2-4-11.9-8.3 -4.2 8.3-13.9 8.2-22.1 7.7 -4.6-0.6-9.4-3.8-11.9-8.3C41 45 41.2 37.6 44 32.7c3-5.4 7.7-8.6 14.7-8.6l15 0 0 9.5 0 0 -14.8 0c-3 0-6 2.4-6 6.8 0 4.2 2.6 7.1 6.1 7.2l0 0 17.6 0v0c-2.4-6-1.1-13.6 3.4-18.4 4.1-4.7 10.8-6.9 17-5.6C101.5 24.5 106.5 28 108.7 32zM93.3 47.7c3.6 0 6.5-2.9 6.5-6.5 0-3.6-2.9-6.5-6.5-6.5 -3.6 0-6.5 2.9-6.5 6.5C86.8 44.8 89.7 47.7 93.3 47.7z"/><path class="st0" d="M219.6 84.3c-4.1 0-7.8-2.8-7.8-7.5v-0.9l11.9 0c1.1 0 1.7-0.8 1.7-1.6 0-0.8-0.5-1.6-1.7-1.6l-7 0c-4.5 0-7.3 3-7.3 7 0 4.9 3.8 8.1 9.2 8.1l22.3 0.1 0 0 0 0 -0.1-24.1h26.3c6.1 0 10.8 4.1 10.9 9.4 0 4.2-1.2 6.6-3.3 8.4 -2 1.7-4.9 2-4.9 2s9.1 14.7 9.1 14.7h-14.4l-11.1-17.2 0 17.2 -12.6 0c0-0.2 0-9 0-9 -0.8 4-5.3 9-10.2 9 0 0-18.3 0-18.4 0 -6.1 0-11.5-4.7-14.2-10.3 -2.2-4.9-2-11.5 0.8-16 2.9-5.8 9.4-8.1 15.7-8.1l14.3 0c4.3 0 8.6 4.4 9.2 8.7 0.5 4.3-0.7 7.1-2.6 9 -2.1 2.1-4.7 2.9-7.9 2.9L219.6 84.3zM253.5 72.5l0 3 10.1 0c1.3 0 1.8-0.8 1.8-1.5 0-0.8-0.5-1.5-1.7-1.5H253.5z"/><rect x="184.1" y="0.5" transform="matrix(6.123234e-17 -1 1 6.123234e-17 5.0387 369.3587)" width="6.2" height="363.3"/><path d="M67.1 260.5c0-3.1-0.3-5.1-0.8-5.8 -0.5-0.8-2.2-1.1-4.9-1.1 -2.7 0-4.5-0.1-5.3-0.2 -0.8-0.2-1.1-0.5-1.1-1.1 0-0.8 0.3-1.3 0.9-1.5 0.6-0.2 1.4-0.3 2.4-0.3 1.3 0 3.4 0 6 0.1 2.6 0.1 4.6 0.1 5.9 0.1 1.3 0 3.5 0 6.5-0.1 2-0.1 3.6-0.1 4.6-0.1 2.1 0 3.2 0.4 3.2 1.1 0 0.7-0.4 1.1-1.1 1.3 -0.7 0.2-1.9 0.2-3.6 0.2 -1.4 0-2.5 0.2-3.3 0.6 -0.8 0.4-1.2 1.3-1.2 2.8v15.1c0 0.8-0.1 1.5-0.4 2.2 -0.3 0.7-0.8 1.3-1.6 1.7 -3.1 1.4-6.3 2.5-9.6 3.3 -3.3 0.8-7.2 1.1-11.8 1.1 -4.3 0-8.5-0.6-12.5-1.9 -4-1.2-7.5-3.1-10.6-5.6 -3.1-2.5-5.5-5.6-7.3-9.2 -1.8-3.7-2.7-7.9-2.7-12.6 0-5 0.9-9.5 2.6-13.5 1.8-4 4.2-7.4 7.4-10.2 3.2-2.8 6.9-4.9 11.2-6.4 4.3-1.5 9-2.2 13.9-2.2 2.9 0 5.5 0.2 7.8 0.6 2.3 0.4 5 1 8.1 1.9 1 0.3 1.8 0.6 2.3 1 0.5 0.4 0.9 1 1.1 1.8 0.3 0.8 0.4 1.8 0.5 3.2 0.1 1.3 0.1 3.3 0.1 5.9 0 0.5-0.4 0.8-1.2 0.8 -0.4 0-1-0.8-1.8-2.3 -0.7-1.3-1.4-2.4-2.2-3.4 -0.7-1-1.7-2-3-3 -1.2-1-2.8-1.8-4.6-2.5 -1.9-0.7-4-1-6.5-1 -2.4 0-4.9 0.3-7.6 0.9 -2.7 0.6-5.4 1.8-8.2 3.7 -2.7 1.9-5.1 4.8-6.9 8.8 -1.9 3.9-2.8 9-2.8 15.3 0 4.3 0.7 8.1 2.2 11.5 1.5 3.4 3.4 6.3 5.8 8.7 2.4 2.4 5 4.1 7.9 5.3 2.9 1.2 5.7 1.8 8.4 1.8 1.3 0 2.6-0.1 4-0.2 1.4-0.2 2.6-0.4 3.7-0.7l0.6-0.2c1-0.3 1.8-0.6 2.4-0.9 0.6-0.3 1.1-0.7 1.5-1.2 1.1-1.5 1.6-4.1 1.6-7.8V260.5z"/><path d="M91.8 226.7c0-1.5-0.5-2.6-1.6-3.1 -1.1-0.5-2.7-0.9-5-1 -1-0.1-1.9-0.2-2.5-0.4 -0.6-0.2-1-0.6-1-1.2 0-0.6 0.2-1 0.7-1.1 0.4-0.2 1-0.3 1.6-0.3 1.3 0 3.1 0.1 5.4 0.2 2.7 0.1 4.8 0.2 6.2 0.2 1.2 0 3-0.1 5.5-0.2 2.4-0.1 4.1-0.2 5.4-0.2 1.1 0 1.9 0.1 2.4 0.3 0.5 0.2 0.8 0.7 0.8 1.4 0 0.5-0.4 0.9-1.3 1.1 -0.9 0.2-2 0.3-3.4 0.3 -1.5 0-2.7 0.4-3.5 1.1 -0.8 0.7-1.2 2.2-1.2 4.5v43.4c0 1.4 0.3 2.3 0.9 2.7 0.6 0.4 1.6 0.6 2.9 0.6 1.1 0 2.7-0.1 4.8-0.2 2-0.1 4-0.3 5.8-0.6 2-0.3 3.8-1.1 5.2-2.3 1.4-1.2 2.9-2.7 4.4-4.6 1-1.3 1.7-1.9 2-1.9 0.4 0 0.7 0.1 0.9 0.4 0.2 0.3 0.2 0.7 0.2 1.2 0 0.8-0.1 2.2-0.4 4.2 -0.3 2-0.6 3.9-1.1 5.7 -0.2 0.6-0.5 1.1-0.8 1.3 -0.4 0.3-0.7 0.4-1.1 0.4 -1.4 0-3.5 0-6.4-0.1 -2.4-0.1-5.1-0.1-8.3-0.2 -3.2-0.1-6.8-0.1-10.9-0.1 -1.5 0-3.8 0.1-6.8 0.2 -3.1 0.1-5.4 0.2-6.9 0.2 -1.1 0-1.8-0.1-2.1-0.3 -0.3-0.2-0.4-0.6-0.4-1.2 0-0.6 0.2-1 0.6-1.1 0.4-0.2 0.9-0.3 1.6-0.4 3-0.3 5-0.7 6-1.5 1-0.7 1.5-2.4 1.5-4.9V226.7z"/><path d="M130.9 237c1.6-3.7 3.8-7 6.7-9.9 2.9-2.8 6.3-5 10.2-6.6 3.9-1.6 8.1-2.3 12.5-2.3 5.4 0 10.1 0.9 14.2 2.8 4.1 1.9 7.5 4.3 10.1 7.3 2.6 3 4.6 6.3 5.9 9.9 1.3 3.5 1.9 7 1.9 10.5 0 3.6-0.6 7.2-1.9 10.8 -1.2 3.6-3.2 7-5.8 10.1 -2.6 3.1-6 5.6-10.2 7.5 -4.1 1.9-9 2.8-14.6 2.8 -4.4 0-8.5-0.8-12.4-2.2 -3.8-1.5-7.2-3.6-10-6.4 -2.8-2.7-5-6-6.6-9.8 -1.6-3.8-2.3-7.9-2.3-12.4C128.5 244.7 129.3 240.7 130.9 237zM140.8 262.4c1.4 3.6 3.3 6.5 5.5 8.6 2.2 2.1 4.5 3.6 7 4.5 2.5 0.9 4.8 1.4 7 1.4 4.9 0 8.8-1.2 11.9-3.6 3.1-2.4 5.3-5.3 6.7-8.8 1.4-3.4 2.3-6.6 2.7-9.6 0.4-3 0.6-5.6 0.6-7.8 0-3.2-0.5-6.3-1.4-9.4 -0.9-3.1-2.3-5.9-4.2-8.4 -1.9-2.5-4.2-4.5-7-6 -2.8-1.5-6.1-2.2-9.7-2.2 -2.7 0-5.3 0.5-7.8 1.6 -2.5 1.1-4.8 2.8-6.8 5 -2 2.3-3.7 5.2-4.8 8.8 -1.2 3.6-1.8 7.8-1.8 12.7C138.7 254.3 139.4 258.8 140.8 262.4z"/><path d="M202.5 230c0-0.6 0-1.4 0.1-2.4 0-0.8 0-1.2 0-1.4 0-1.1-0.3-1.9-0.9-2.2 -0.6-0.3-1.6-0.6-3.2-0.9h-0.4l-0.6-0.1c-2.3-0.3-3.4-0.8-3.4-1.5 0-0.5 0.6-0.9 1.7-1.2 1.1-0.3 2.2-0.4 3.3-0.4 2.6 0 5.2-0.1 7.9-0.2 2.7-0.1 5.5-0.3 8.4-0.4 2.1-0.1 3.4-0.2 3.8-0.2 3.4 0 6.5 0.4 9 1.2 2.6 0.8 4.7 1.9 6.4 3.2 1.7 1.3 2.9 2.8 3.7 4.5 0.8 1.6 1.2 3.3 1.2 4.9 0 1.7-0.2 3.1-0.6 4.3 -0.4 1.2-0.9 2.2-1.5 3.1 -0.8 1-1.9 2-3.4 2.9 -0.6 0.4-1 0.6-1 0.8 0 0.3 0.6 0.7 1.7 1.4 1.2 0.7 2.3 1.4 3.2 2 0.9 0.6 1.8 1.5 2.7 2.6 0.9 1.1 1.7 2.5 2.3 4.1 0.6 1.7 0.9 3.5 0.9 5.6 0 4.5-0.9 8.1-2.8 10.7 -1.9 2.6-5.4 4.8-10.5 6.5 -1.2 0.4-4 0.7-8.4 0.9 -4.4 0.2-10.4 0.3-18 0.3 -0.8 0-2 0-3.7 0.1 -1.7 0.1-2.9 0.1-3.6 0.1 -1.3 0-2.2-0.1-2.7-0.2 -0.5-0.1-0.7-0.5-0.7-1.1 0-0.4 0.3-0.7 0.9-0.9 0.6-0.2 1.5-0.3 2.7-0.3h0.5c1.2-0.1 2.2-0.3 3-0.8 0.8-0.5 1.2-1.2 1.2-2.2L202.5 230zM210.6 268.2c0 2.3 0.7 4 2 5 1.3 1.1 4.1 1.6 8.4 1.6 2.2 0 4.2-0.3 6-0.8 2.5-0.7 4.5-2.2 6-4.4 1.5-2.2 2.2-4.9 2.2-7.9 0-3-0.6-5.5-1.7-7.4 -1.1-1.9-2.7-3.4-4.7-4.4 -2-1-4.2-1.6-6.6-2 -2.4-0.3-5.2-0.5-8.2-0.5 -1.1 0-2 0-2.5 0.1 -0.5 0.1-0.8 0.3-0.8 0.5V268.2zM210.8 244.2c0.4 0.1 1.1 0.3 2.2 0.4 1.1 0.1 2.3 0.2 3.6 0.2 0.6 0 1.8-0.1 3.4-0.2l1.6-0.1c3.1-0.3 5.6-1.5 7.6-3.7 1.9-2.2 2.9-4.8 2.9-7.8 0-2.5-0.5-4.5-1.4-6 -1-1.5-2.2-2.6-3.8-3.3 -1.6-0.7-3.1-1.1-4.7-1.3 -1.6-0.2-3.4-0.2-5.5-0.2 -2.3 0-3.8 0.2-4.6 0.6 -0.8 0.4-1.2 1.1-1.2 2.3V244.2z"/><path d="M283.4 255c-0.2-0.7-0.4-1.2-0.7-1.5 -0.3-0.3-0.7-0.5-1.2-0.6 -0.5-0.1-1.4-0.2-2.4-0.3 -1.1-0.1-2.6-0.1-4.6-0.1h-0.1c-3.2 0-5.3 0.1-6.5 0.2 -1.1 0.2-1.8 0.4-2 0.8 -0.5 1.1-1.2 2.6-2 4.7 -0.8 2-1.5 4.1-2.2 6.1 -0.7 2-1.3 3.8-1.8 5.4 -0.5 1.6-0.8 2.5-0.8 2.8 0 0.8 0.3 1.5 0.9 1.9 0.6 0.4 1.2 0.8 1.9 1l1.1 0.3c2.6 0.6 3.8 1.2 3.8 1.6 0 0.5-0.2 0.8-0.7 1 -0.4 0.1-1 0.2-1.5 0.2 -0.9 0-2.2-0.1-4-0.2 -2-0.1-3.5-0.2-4.4-0.2 -1.1 0-3 0.1-5.6 0.2 -2.2 0.1-3.8 0.2-5 0.2 -0.8 0-1.1-0.4-1.1-1.1 0-0.4 0.2-0.7 0.6-0.8 0.4-0.2 1-0.3 1.8-0.4 1.1-0.3 1.9-0.5 2.5-0.7 0.9-0.3 1.5-0.7 1.9-1 0.4-0.3 0.7-0.8 1-1.4l24.4-55.4c0.2-0.4 0.5-0.6 1-0.6 0.6 0 1 0.2 1.1 0.7l17.8 50.8c0.8 2.4 1.7 4 2.5 5 0.8 1 1.7 1.6 2.5 1.9 0.6 0.2 1.3 0.4 2.1 0.5 0.9 0.2 1.5 0.4 1.8 0.5 0.3 0.2 0.5 0.5 0.5 0.9 0 0.8-0.6 1.1-1.9 1.1 -1.3 0-3.3-0.1-5.8-0.2 -2.2-0.1-4-0.2-5.3-0.2 -1.1 0-2.9 0.1-5.2 0.2 -2.4 0.1-4.2 0.2-5.5 0.2 -0.9 0-1.3-0.4-1.3-1.1 0-0.5 0.4-0.9 1.1-1.1 0.8-0.3 2.1-0.5 3.9-0.9h0.3c0.4-0.1 1-0.3 1.5-0.8 0.6-0.4 0.9-1 0.9-1.7 0-0.3-0.1-0.9-0.4-1.6 -0.1-0.4-0.2-0.7-0.2-0.8L283.4 255zM268 246.1c-0.1 0.2-0.1 0.4-0.2 0.6 -0.3 0.5-0.4 0.9-0.4 1.1 0 0.1 0.3 0.2 0.9 0.3 0.6 0.1 1.4 0.1 2.2 0.1 1.1 0.1 2.3 0.1 3.7 0.1 1.3 0 2.5 0 3.5-0.1 0.9-0.1 1.6-0.1 2.2-0.2 0.6-0.1 0.9-0.2 0.9-0.3 0-0.3-0.1-0.7-0.4-1.4 0-0.2 0-0.3-0.1-0.4l-5.1-15.1v-0.1c-0.2-0.3-0.4-0.5-0.6-0.5s-0.4 0.2-0.5 0.5L268 246.1z"/><path d="M318.3 226.7c0-1.5-0.5-2.6-1.6-3.1 -1.1-0.5-2.7-0.9-5-1 -1-0.1-1.9-0.2-2.5-0.4 -0.6-0.2-1-0.6-1-1.2 0-0.6 0.2-1 0.7-1.1 0.4-0.2 1-0.3 1.6-0.3 1.3 0 3.1 0.1 5.4 0.2 2.7 0.1 4.8 0.2 6.2 0.2 1.2 0 3-0.1 5.5-0.2 2.4-0.1 4.1-0.2 5.4-0.2 1.1 0 1.9 0.1 2.4 0.3 0.5 0.2 0.8 0.7 0.8 1.4 0 0.5-0.4 0.9-1.3 1.1 -0.9 0.2-2 0.3-3.4 0.3 -1.5 0-2.7 0.4-3.5 1.1 -0.8 0.7-1.2 2.2-1.2 4.5v43.4c0 1.4 0.3 2.3 0.9 2.7 0.6 0.4 1.6 0.6 2.9 0.6 1.1 0 2.7-0.1 4.8-0.2 2-0.1 4-0.3 5.8-0.6 2-0.3 3.8-1.1 5.2-2.3 1.4-1.2 2.9-2.7 4.4-4.6 1-1.3 1.7-1.9 2-1.9 0.4 0 0.8 0.1 0.9 0.4 0.2 0.3 0.2 0.7 0.2 1.2 0 0.8-0.1 2.2-0.4 4.2 -0.3 2-0.6 3.9-1.1 5.7 -0.2 0.6-0.5 1.1-0.8 1.3 -0.4 0.3-0.7 0.4-1.1 0.4 -1.4 0-3.5 0-6.4-0.1 -2.4-0.1-5.1-0.1-8.3-0.2 -3.2-0.1-6.8-0.1-10.9-0.1 -1.5 0-3.8 0.1-6.8 0.2 -3.1 0.1-5.4 0.2-6.9 0.2 -1.1 0-1.8-0.1-2.1-0.3 -0.3-0.2-0.4-0.6-0.4-1.2 0-0.6 0.2-1 0.6-1.1 0.4-0.2 0.9-0.3 1.6-0.4 3-0.3 5-0.7 6-1.5 1-0.7 1.5-2.4 1.5-4.9V226.7z"/><path d="M15 309.9c0-1.5-0.5-2.6-1.6-3.1 -1.1-0.5-2.7-0.9-5-1 -1-0.1-1.9-0.2-2.5-0.4 -0.6-0.2-1-0.6-1-1.2 0-0.6 0.2-1 0.7-1.1 0.4-0.2 1-0.3 1.6-0.3 1.3 0 3.1 0.1 5.4 0.2 2.7 0.1 4.8 0.2 6.2 0.2 1.2 0 3-0.1 5.5-0.2 2.4-0.1 4.1-0.2 5.4-0.2 1.1 0 1.9 0.1 2.4 0.3 0.5 0.2 0.8 0.7 0.8 1.4 0 0.5-0.4 0.9-1.3 1.1 -0.9 0.2-2 0.3-3.4 0.3 -1.5 0-2.7 0.4-3.5 1.1 -0.8 0.7-1.2 2.2-1.2 4.5v43.4c0 1.4 0.3 2.3 0.9 2.7 0.6 0.4 1.6 0.6 2.9 0.6 1.1 0 2.7-0.1 4.8-0.2 2-0.1 4-0.3 5.8-0.6 2-0.3 3.8-1.1 5.2-2.3 1.4-1.2 2.9-2.7 4.4-4.6 1-1.3 1.7-1.9 2-1.9 0.4 0 0.7 0.1 0.9 0.4 0.2 0.3 0.2 0.7 0.2 1.2 0 0.8-0.1 2.2-0.4 4.2 -0.3 2-0.6 3.9-1.1 5.7 -0.2 0.6-0.5 1.1-0.8 1.3 -0.4 0.3-0.7 0.4-1.1 0.4 -1.4 0-3.5 0-6.4-0.1 -2.4-0.1-5.1-0.1-8.3-0.2 -3.2-0.1-6.8-0.1-10.9-0.1 -1.5 0-3.8 0.1-6.8 0.2 -3.1 0.1-5.4 0.2-6.9 0.2 -1.1 0-1.8-0.1-2.1-0.3 -0.3-0.2-0.4-0.6-0.4-1.2 0-0.6 0.2-1 0.6-1.1 0.4-0.2 0.9-0.3 1.6-0.4 3-0.3 5-0.7 6-1.5 1-0.7 1.5-2.4 1.5-4.9V309.9z"/><path d="M100.6 311.1c0-2.1-0.3-3.4-0.9-4 -0.6-0.5-1.8-1-3.7-1.4h-0.1c-0.1 0-0.4 0-1-0.1 -0.8-0.1-1.3-0.3-1.7-0.5 -0.4-0.2-0.6-0.6-0.6-1.2 0-0.8 0.7-1.2 2-1.2 0.9 0 2.3 0.1 4.1 0.2 1.9 0.1 3.2 0.2 4.1 0.2 0.9 0 2.3-0.1 4.2-0.2 1.9-0.1 3.3-0.2 4.2-0.2 1.2 0 1.8 0.5 1.8 1.5 0 0.6-0.2 0.9-0.5 1.1 -0.3 0.2-0.8 0.3-1.5 0.3 -0.4 0-0.8 0-1.1 0.1 -2 0.3-3.5 0.7-4.3 1.3 -0.8 0.6-1.2 1.9-1.2 4v28c0 4.2-0.4 7.7-1.1 10.6 -0.7 2.9-2 5.4-3.9 7.4 -1.9 2-4.5 3.5-7.8 4.5S84 363 78.8 363c-4.6 0-8.3-0.5-11.2-1.5 -2.9-1-5-2.4-6.5-4.3 -1.5-1.9-2.5-4.1-3-6.8 -0.5-2.6-0.8-6-0.8-9.9 0-4.3 0.1-9.7 0.2-16.2 0.1-5.6 0.2-9.5 0.2-11.9 0-2.6-0.2-4.3-0.7-5.2 -0.5-0.9-1.6-1.4-3.3-1.5h-0.5c-1.8-0.1-3-0.2-3.7-0.3 -0.7-0.1-1.1-0.4-1.1-1 0-1.2 0.7-1.8 2.1-1.8 1.3 0 3.2 0.1 5.6 0.2 2.4 0.1 4.2 0.2 5.6 0.2 1.5 0 3.2-0.1 5.1-0.2 2.3-0.1 4.2-0.2 5.6-0.2 0.4 0 1 0.1 1.5 0.4 0.6 0.3 0.9 0.6 0.9 1.1 0 0.8-0.3 1.2-0.8 1.4 -0.5 0.2-1.7 0.2-3.4 0.2 -1 0.1-1.9 0.4-2.6 0.8 -0.7 0.4-1.2 1-1.4 1.8 -0.2 1-0.4 3-0.5 6.1 -0.2 3-0.3 6.5-0.3 10.5 -0.1 4.9-0.1 10.7-0.1 17.4 0 6 1.3 10.4 3.8 13.2 2.5 2.8 6.8 4.2 13 4.2 6.6 0 11.3-1.6 14.1-4.9 2.8-3.3 4.2-8.7 4.2-16.1V311.1z"/><path d="M148.8 338.8l-0.1-0.2c-0.5-0.8-1.1-1.1-1.6-1.1 -0.6 0-1.3 0.7-2.2 2.1 -0.4 0.7-0.7 1.2-1 1.6 -2.5 3.6-4.5 6.7-6 9.3 -1.5 2.6-2.3 4.4-2.3 5.4 0 1.2 1.1 2.1 3.4 2.7 0.5 0.1 1.2 0.3 2.2 0.4 1.3 0.2 2.2 0.4 2.8 0.6 0.6 0.2 0.9 0.5 0.9 1 0 0.3-0.3 0.6-0.8 0.8 -0.5 0.2-1 0.3-1.5 0.3 -0.8 0-2.3-0.1-4.7-0.2 -3.3-0.1-5.6-0.2-7.1-0.2 -1.3 0-3.4 0.1-6 0.2 -2.7 0.1-4.7 0.2-5.9 0.2 -0.4 0-0.9-0.1-1.3-0.3 -0.4-0.2-0.7-0.5-0.7-1 0-0.5 0.2-0.9 0.6-1.1 0.4-0.2 1.1-0.3 2-0.5 0.6-0.1 1.1-0.2 1.5-0.3 1.5-0.3 2.8-0.7 3.9-1.1 1.1-0.4 1.9-1 2.6-1.8l17.1-20.1c0.3-0.4 0.5-0.9 0.5-1.4 0-0.5-0.4-1.2-1.2-2.1 -0.1-0.1-0.1-0.2-0.2-0.3l-19-24.6c-0.3-0.4-0.8-0.7-1.3-0.9 -0.5-0.2-1.1-0.4-1.8-0.5 -0.4-0.1-0.8-0.1-1.1-0.2 -1.1-0.2-1.9-0.4-2.5-0.6 -0.6-0.2-0.9-0.5-0.9-1 0-0.9 0.9-1.3 2.6-1.3 1.3 0 3.3 0.1 5.9 0.2 2.7 0.1 4.7 0.2 5.9 0.2 1.2 0 3.1-0.1 5.6-0.2 2.6-0.1 4.4-0.2 5.6-0.2 0.6 0 1.2 0.1 1.8 0.3 0.5 0.2 0.8 0.6 0.8 1.2 0 0.6-0.3 0.9-0.8 1.1 -0.5 0.2-1.5 0.3-3 0.3 -0.3 0.1-0.6 0.1-1 0.1 -1.2 0.1-2.2 0.2-2.8 0.5 -0.7 0.3-1 0.7-1 1.3 0 1 0.3 1.9 1 2.7l8.8 12.4c0.1 0.1 0.3 0.4 0.6 0.9 0.7 1 1.3 1.9 1.9 2.5 0.5 0.6 1 1 1.5 1l0.3-0.1h0.2c0.5-0.2 0.9-0.5 1.2-1.1l8.6-13.8 0.5-0.7c0.5-0.8 0.9-1.5 1.1-2.1 0.3-0.5 0.4-1 0.4-1.5 0-0.6-0.3-1.1-0.9-1.4 -0.6-0.4-1.1-0.6-1.7-0.7 -0.3-0.1-0.8-0.1-1.5-0.2 -1.2-0.2-2.1-0.4-2.8-0.5 -0.6-0.2-1-0.4-1.1-0.8 0-0.7 0.2-1.1 0.7-1.3 0.5-0.2 1.1-0.2 1.9-0.2 1.1 0 2.9 0.1 5.2 0.2 2.3 0.1 4 0.2 5.2 0.2 1.1 0 2.6-0.1 4.7-0.2 2-0.1 3.6-0.2 4.7-0.2 0.6 0 1.1 0.1 1.7 0.2 0.6 0.1 0.9 0.4 0.9 0.8 0 0.4-0.2 0.8-0.5 0.9 -0.4 0.2-1 0.3-1.9 0.5 -1.1 0.3-1.9 0.5-2.6 0.7 -1 0.3-1.8 0.7-2.6 1.2 -0.8 0.5-1.6 1.1-2.4 1.9 -1.1 1-3.2 3.5-6.3 7.4l-1.3 1.6 -8.3 10.3c-0.6 0.6-0.9 1.3-0.9 2 0 0.8 0.3 1.5 0.8 2.1l17.8 23c0.8 1.1 1.8 1.9 2.8 2.3 1.1 0.5 2.2 0.8 3.6 1 0.3 0.1 0.5 0.1 0.8 0.1 1.3 0.2 2.2 0.4 2.7 0.6 0.5 0.2 0.7 0.5 0.7 1.1 0 0.5-0.2 0.9-0.5 1.1 -0.3 0.2-0.7 0.3-1.2 0.3 -1.4 0-3.5-0.1-6.3-0.2 -2.9-0.1-5-0.2-6.4-0.2 -1.4 0-3.5 0.1-6.4 0.2 -2.9 0.1-5 0.2-6.5 0.2 -0.5 0-0.9-0.1-1.2-0.2 -0.3-0.2-0.5-0.5-0.5-1 0-0.6 0.3-1 0.8-1.1 0.5-0.2 1.5-0.4 2.9-0.6 0.1 0 0.5 0 1.1-0.1l0.6-0.1c1-0.1 1.8-0.2 2.2-0.4 0.5-0.2 0.7-0.6 0.7-1.1 0-0.2-0.1-0.5-0.2-0.9 -0.2-0.4-0.3-0.7-0.5-1L148.8 338.8z"/><path d="M236.1 311.1c0-2.1-0.3-3.4-0.9-4 -0.6-0.5-1.8-1-3.7-1.4h-0.1c-0.1 0-0.4 0-1-0.1 -0.8-0.1-1.3-0.3-1.7-0.5 -0.4-0.2-0.6-0.6-0.6-1.2 0-0.8 0.7-1.2 2-1.2 0.9 0 2.3 0.1 4.1 0.2 1.9 0.1 3.2 0.2 4.1 0.2 0.9 0 2.3-0.1 4.2-0.2 1.9-0.1 3.3-0.2 4.2-0.2 1.2 0 1.8 0.5 1.8 1.5 0 0.6-0.2 0.9-0.5 1.1 -0.3 0.2-0.8 0.3-1.5 0.3 -0.4 0-0.8 0-1.1 0.1 -2 0.3-3.5 0.7-4.3 1.3 -0.8 0.6-1.2 1.9-1.2 4v28c0 4.2-0.4 7.7-1.1 10.6 -0.7 2.9-2 5.4-3.9 7.4 -1.9 2-4.5 3.5-7.8 4.5s-7.6 1.5-12.9 1.5c-4.6 0-8.3-0.5-11.2-1.5 -2.9-1-5-2.4-6.5-4.3 -1.5-1.9-2.5-4.1-3-6.8 -0.5-2.6-0.8-6-0.8-9.9 0-4.3 0.1-9.7 0.2-16.2 0.1-5.6 0.2-9.5 0.2-11.9 0-2.6-0.2-4.3-0.7-5.2 -0.5-0.9-1.6-1.4-3.3-1.5h-0.5c-1.8-0.1-3-0.2-3.7-0.3 -0.7-0.1-1.1-0.4-1.1-1 0-1.2 0.7-1.8 2.1-1.8 1.3 0 3.2 0.1 5.6 0.2 2.4 0.1 4.2 0.2 5.6 0.2 1.5 0 3.2-0.1 5.1-0.2 2.3-0.1 4.2-0.2 5.6-0.2 0.4 0 1 0.1 1.5 0.4 0.6 0.3 0.9 0.6 0.9 1.1 0 0.8-0.3 1.2-0.8 1.4 -0.5 0.2-1.7 0.2-3.4 0.2 -1 0.1-1.9 0.4-2.6 0.8 -0.7 0.4-1.2 1-1.4 1.8 -0.2 1-0.4 3-0.5 6.1 -0.2 3-0.3 6.5-0.3 10.5 -0.1 4.9-0.1 10.7-0.1 17.4 0 6 1.3 10.4 3.8 13.2 2.5 2.8 6.8 4.2 13 4.2 6.6 0 11.3-1.6 14.1-4.9 2.8-3.3 4.2-8.7 4.2-16.1V311.1z"/><path d="M262 308.5c0-1-0.5-1.6-1.4-2 -1-0.4-2.4-0.6-4.3-0.8h-0.2c-0.9-0.1-1.6-0.2-2.2-0.4 -0.6-0.2-0.9-0.6-0.9-1.1 0-0.5 0.2-0.9 0.7-1.1 0.4-0.3 0.9-0.4 1.4-0.4 0.1 0 1 0 2.7 0.1 1.6 0.1 3.2 0.1 4.7 0.2 1.6 0.1 2.8 0.1 3.7 0.1 1.4 0 3.6-0.1 6.5-0.2 2.9-0.1 5.1-0.2 6.5-0.2 2.2 0 4.4 0.2 6.4 0.7 2 0.4 3.9 1.2 5.6 2.3 1.7 1.1 3.1 2.6 4.1 4.6 1 1.9 1.5 4.3 1.5 7.1 0 3.1-0.8 5.6-2.4 7.5 -1.6 1.9-3.6 3.7-6 5.4 -1.3 1-1.9 1.6-1.9 1.8 0 0.3 0.2 0.7 0.6 1.3 0.1 0.1 0.1 0.2 0.2 0.3l11.3 18.6c1 1.7 2.2 3 3.4 4 1.2 1 3 1.7 5.1 2.2 0.6 0.1 1.1 0.2 1.5 0.3 1.1 0.2 1.9 0.4 2.3 0.6 0.4 0.2 0.7 0.5 0.7 0.9 0 0.6-0.3 0.9-1 0.9 -1.5 0-3.1 0-5-0.1 -1.6 0-2.8 0-3.7 0 -4 0-6.3 0-7.1-0.1 -0.8-0.1-1.3-0.3-1.5-0.8l-14.1-24.8c-0.4-0.8-1.2-1.5-2.4-2.1 -1.1-0.5-2.4-0.8-3.6-0.8 -1.3 0-2.2 0.2-2.4 0.5 -0.3 0.4-0.4 1-0.4 2.1v16.6c0 1.4 0 2.4 0.1 3.1 0.1 0.7 0.3 1.2 0.7 1.7 0.4 0.4 1 0.8 1.9 1.1 0.9 0.3 2.2 0.6 3.9 1 0.3 0.1 0.6 0.1 1 0.2 1 0.2 1.7 0.4 2.2 0.6 0.5 0.2 0.7 0.5 0.7 1.1 0 0.4-0.3 0.8-0.9 1 -0.6 0.2-1.1 0.3-1.6 0.3 -1.1 0-2.9-0.1-5.4-0.2 -2.4-0.1-4.2-0.2-5.4-0.2 -1.4 0-3.6 0.1-6.5 0.2 -2.9 0.1-5.2 0.2-6.8 0.2 -0.4 0-0.7-0.1-1.1-0.3 -0.3-0.2-0.5-0.5-0.5-1 0-0.6 0.3-1 0.8-1.1 0.5-0.2 1.3-0.3 2.4-0.5 0.8-0.1 1.3-0.2 1.5-0.2 1.4-0.2 2.5-0.6 3.4-1.2 0.8-0.6 1.2-1.7 1.2-3.2V308.5zM270.2 328.9c0 0.4 0.4 0.8 1.1 0.9 0.7 0.2 2.1 0.2 4.3 0.2 1.7 0 3.3-0.1 4.7-0.4 1.4-0.3 2.7-0.8 4-1.6 1.3-0.8 2.3-2.1 3.1-3.9 0.8-1.8 1.1-4 1.1-6.8 0-2.3-0.4-4.2-1.2-5.7 -0.8-1.5-1.9-2.7-3.3-3.6 -1.4-0.9-3-1.5-4.7-1.9 -1.8-0.3-3.7-0.5-5.8-0.5 -0.8 0-1.6 0.2-2.2 0.5 -0.7 0.4-1 1.2-1 2.4V328.9z"/><path d="M313.1 309.1c-0.7-1-1.5-1.8-2.2-2.2 -0.8-0.5-1.6-0.8-2.4-1.1l-0.6-0.2c-1.2-0.3-2-0.5-2.5-0.8 -0.4-0.3-0.7-0.6-0.7-1.1 0-0.6 0.3-1 0.9-1.1h1.4c1 0 2.6 0.1 4.8 0.2 2.2 0.1 3.8 0.2 4.8 0.2 1.3 0 3.4-0.1 6.1-0.2 2.7-0.1 4.7-0.2 6-0.2 0.3 0 0.6 0.1 0.9 0.3 0.3 0.2 0.4 0.5 0.4 1 0 0.6-0.4 1-1.2 1.3 -0.8 0.3-1.9 0.5-3.2 0.5 -0.9 0-1.6 0.1-2.2 0.3 -0.6 0.2-0.9 0.6-0.9 1.2 0 0.5 0.2 1 0.5 1.5l14.2 21c0.4 0.6 0.9 0.9 1.3 0.9 0.5 0 1-0.4 1.4-1.1l13.8-19.2c0.8-1 1.2-1.9 1.2-2.7 0-0.7-0.2-1.2-0.6-1.4 -0.4-0.2-1.1-0.4-2-0.5h-0.2c-0.2 0-0.4 0-0.7-0.1 -1.2-0.2-2.2-0.4-2.8-0.6 -0.7-0.2-1-0.5-1-1.1 0-0.6 0.1-0.9 0.4-1.1 0.3-0.2 0.6-0.2 1-0.2 1 0 2.6 0.1 4.8 0.2 2.2 0.1 3.8 0.2 4.8 0.2 0.9 0 2.2-0.1 3.8-0.2 1.7-0.1 2.9-0.2 3.8-0.2 1.1 0 1.9 0.1 2.3 0.2 0.4 0.1 0.7 0.5 0.7 1.1 0 0.8-0.9 1.3-2.6 1.6l-0.7 0.2c-1.9 0.3-3.1 0.9-3.8 1.7L340 334.6c-0.3 0.4-0.5 1.2-0.5 2.2v16.4c0 2.3 0.2 3.7 0.7 4.4 0.4 0.6 1.2 1 2.3 1.1 0.6 0.1 1.5 0.2 2.5 0.3 1.8 0.2 3.1 0.4 4 0.6 0.9 0.2 1.3 0.5 1.3 1 0 0.5-0.2 0.8-0.6 1 -0.4 0.2-0.9 0.2-1.5 0.2 -1.3 0-3.2-0.1-5.7-0.2 -2.6-0.1-4.6-0.2-5.8-0.2 -1.5 0-3.7 0.1-6.8 0.2 -3.1 0.1-5.3 0.2-6.8 0.2 -1 0-1.4-0.3-1.4-0.9 0-0.5 0.3-0.9 1-1.1 0.6-0.3 1.6-0.5 2.8-0.7 0.8-0.2 1.3-0.3 1.6-0.4l0.3-0.1c1.7-0.4 2.8-1 3.3-1.8 0.5-0.7 0.8-2.4 0.8-4.9v-14.6c0-1.3-0.4-2.6-1.3-4.1L313.1 309.1z"/><path d="M368 342.5c1.2 0.5 2.3 1.2 3.2 2.1s1.6 2 2.1 3.2c0.5 1.2 0.8 2.5 0.8 3.9 0 1.4-0.3 2.7-0.8 3.9 -0.5 1.2-1.2 2.3-2.1 3.1 -0.9 0.9-1.9 1.6-3.2 2.1 -1.2 0.5-2.5 0.8-3.9 0.8 -1.4 0-2.7-0.3-3.9-0.8 -1.2-0.5-2.3-1.2-3.2-2.1 -0.9-0.9-1.6-1.9-2.1-3.1 -0.5-1.2-0.8-2.5-0.8-3.9 0-1.4 0.3-2.7 0.8-3.9 0.5-1.2 1.2-2.3 2.1-3.2s1.9-1.6 3.2-2.1c1.2-0.5 2.5-0.8 3.9-0.8C365.4 341.7 366.7 342 368 342.5zM360.7 343.8c-1 0.4-1.9 1.1-2.7 1.8 -0.7 0.8-1.3 1.7-1.8 2.7 -0.4 1-0.6 2.2-0.6 3.3 0 1.2 0.2 2.3 0.6 3.3 0.4 1 1 1.9 1.8 2.7 0.8 0.8 1.6 1.4 2.7 1.8 1 0.4 2.1 0.7 3.4 0.7 1.2 0 2.3-0.2 3.3-0.7 1-0.4 1.9-1.1 2.7-1.8 0.7-0.8 1.3-1.7 1.8-2.7 0.4-1 0.6-2.1 0.6-3.3 0-1.2-0.2-2.3-0.6-3.3 -0.4-1-1-1.9-1.8-2.7 -0.8-0.8-1.6-1.4-2.7-1.8 -1-0.4-2.1-0.7-3.3-0.7C362.8 343.1 361.7 343.4 360.7 343.8zM360.4 357.4v-11.5h4.4c1.3 0 2.3 0.3 2.8 0.8s0.9 1.3 0.9 2.4c0 0.5-0.1 0.9-0.2 1.3 -0.2 0.4-0.4 0.7-0.6 0.9 -0.3 0.3-0.6 0.5-0.9 0.6 -0.3 0.2-0.7 0.3-1.1 0.3l3.4 5.1h-1.7l-3.2-5.1h-2.4v5.1H360.4zM365 351.1c0.4 0 0.8-0.1 1.1-0.2 0.3-0.1 0.6-0.3 0.8-0.6 0.2-0.3 0.3-0.7 0.3-1.1 0-0.4-0.1-0.7-0.2-1 -0.2-0.2-0.4-0.5-0.6-0.6 -0.3-0.2-0.5-0.3-0.9-0.3 -0.3-0.1-0.7-0.1-1-0.1h-2.6v4h1.9C364.1 351.1 364.5 351.1 365 351.1z"/></svg>